<svg xmlns="http://www.w3.org/2000/svg" width="320.17" height="35" viewBox="0 0 320.17 35"><rect class="svg__rect" x="0" y="0" width="185.19" height="35" fill="#FFFFFF"/><rect class="svg__rect" x="183.19" y="0" width="136.98000000000002" height="35" fill="#333333"/><path class="svg__text" d="M16.67 22L14.22 22L14.22 13.47L16.74 13.47Q17.87 13.47 18.74 13.97Q19.62 14.48 20.10 15.40Q20.58 16.33 20.58 17.52L20.58 17.52L20.58 17.95Q20.58 19.16 20.10 20.08Q19.61 21.00 18.72 21.50Q17.83 22 16.67 22L16.67 22ZM15.70 14.66L15.70 20.82L16.67 20.82Q17.83 20.82 18.46 20.09Q19.08 19.36 19.09 17.99L19.09 17.99L19.09 17.52Q19.09 16.13 18.49 15.40Q17.89 14.66 16.74 14.66L16.74 14.66L15.70 14.66ZM30.62 22L25.05 22L25.05 13.47L30.58 13.47L30.58 14.66L26.53 14.66L26.53 17.02L30.03 17.02L30.03 18.19L26.53 18.19L26.53 20.82L30.62 20.82L30.62 22ZM34.39 19.42L34.39 19.42L35.87 19.42Q35.87 20.15 36.35 20.55Q36.83 20.95 37.73 20.95L37.73 20.95Q38.50 20.95 38.89 20.63Q39.28 20.32 39.28 19.80L39.28 19.80Q39.28 19.24 38.88 18.94Q38.49 18.63 37.46 18.32Q36.42 18.01 35.81 17.63L35.81 17.63Q34.65 16.90 34.65 15.72L34.65 15.72Q34.65 14.69 35.49 14.02Q36.33 13.35 37.67 13.35L37.67 13.35Q38.56 13.35 39.26 13.68Q39.96 14.01 40.36 14.61Q40.75 15.22 40.75 15.96L40.75 15.96L39.28 15.96Q39.28 15.29 38.86 14.91Q38.44 14.54 37.66 14.54L37.66 14.54Q36.93 14.54 36.53 14.85Q36.13 15.16 36.13 15.71L36.13 15.71Q36.13 16.18 36.56 16.50Q37.00 16.81 37.99 17.10Q38.99 17.40 39.59 17.78Q40.20 18.16 40.48 18.65Q40.76 19.13 40.76 19.79L40.76 19.79Q40.76 20.86 39.94 21.49Q39.13 22.12 37.73 22.12L37.73 22.12Q36.80 22.12 36.02 21.77Q35.25 21.43 34.82 20.83Q34.39 20.22 34.39 19.42ZM50.63 22L45.05 22L45.05 13.47L50.59 13.47L50.59 14.66L46.53 14.66L46.53 17.02L50.04 17.02L50.04 18.19L46.53 18.19L46.53 20.82L50.63 20.82L50.63 22ZM56.31 22L54.82 22L54.82 13.47L56.31 13.47L60.12 19.54L60.12 13.47L61.59 13.47L61.59 22L60.11 22L56.31 15.95L56.31 22ZM68.63 22L65.57 13.47L67.19 13.47L69.34 20.14L71.50 13.47L73.13 13.47L70.06 22L68.63 22ZM76.81 18.00L76.81 18.00L76.81 17.52Q76.81 16.28 77.26 15.32Q77.70 14.37 78.50 13.86Q79.31 13.35 80.35 13.35Q81.39 13.35 82.20 13.85Q83.01 14.35 83.45 15.29Q83.89 16.23 83.89 17.48L83.89 17.48L83.89 17.96Q83.89 19.21 83.46 20.16Q83.02 21.10 82.22 21.61Q81.41 22.12 80.36 22.12L80.36 22.12Q79.33 22.12 78.52 21.61Q77.70 21.10 77.26 20.17Q76.82 19.23 76.81 18.00ZM78.30 17.46L78.30 17.96Q78.30 19.36 78.84 20.13Q79.39 20.90 80.36 20.90L80.36 20.90Q81.35 20.90 81.88 20.15Q82.41 19.40 82.41 17.96L82.41 17.96L82.41 17.51Q82.41 16.09 81.87 15.34Q81.34 14.58 80.35 14.58L80.35 14.58Q79.39 14.58 78.85 15.33Q78.31 16.09 78.30 17.46L78.30 17.46ZM93.71 22L88.36 22L88.36 13.47L89.84 13.47L89.84 20.82L93.71 20.82L93.71 22ZM100.13 22L97.07 13.47L98.70 13.47L100.84 20.14L103.01 13.47L104.64 13.47L101.57 22L100.13 22ZM110.15 22L108.68 22L108.68 13.47L110.15 13.47L110.15 22ZM117.42 22L114.96 22L114.96 13.47L117.48 13.47Q118.61 13.47 119.49 13.97Q120.37 14.48 120.85 15.40Q121.33 16.33 121.33 17.52L121.33 17.52L121.33 17.95Q121.33 19.16 120.84 20.08Q120.36 21.00 119.47 21.50Q118.57 22 117.42 22L117.42 22ZM116.45 14.66L116.45 20.82L117.41 20.82Q118.58 20.82 119.20 20.09Q119.83 19.36 119.84 17.99L119.84 17.99L119.84 17.52Q119.84 16.13 119.23 15.40Q118.63 14.66 117.48 14.66L117.48 14.66L116.45 14.66ZM125.52 18.00L125.52 18.00L125.52 17.52Q125.52 16.28 125.96 15.32Q126.41 14.37 127.21 13.86Q128.02 13.35 129.06 13.35Q130.10 13.35 130.91 13.85Q131.72 14.35 132.15 15.29Q132.59 16.23 132.60 17.48L132.60 17.48L132.60 17.96Q132.60 19.21 132.17 20.16Q131.73 21.10 130.93 21.61Q130.12 22.12 129.07 22.12L129.07 22.12Q128.04 22.12 127.22 21.61Q126.41 21.10 125.97 20.17Q125.53 19.23 125.52 18.00ZM127.00 17.46L127.00 17.96Q127.00 19.36 127.55 20.13Q128.10 20.90 129.07 20.90L129.07 20.90Q130.06 20.90 130.59 20.15Q131.12 19.40 131.12 17.96L131.12 17.96L131.12 17.51Q131.12 16.09 130.58 15.34Q130.05 14.58 129.06 14.58L129.06 14.58Q128.10 14.58 127.56 15.33Q127.02 16.09 127.00 17.46L127.00 17.46ZM144.52 22L143.04 22L143.04 13.47L146.31 13.47Q147.73 13.47 148.58 14.21Q149.42 14.96 149.42 16.18L149.42 16.18Q149.42 17.44 148.59 18.13Q147.77 18.83 146.29 18.83L146.29 18.83L144.52 18.83L144.52 22ZM144.52 14.66L144.52 17.64L146.31 17.64Q147.10 17.64 147.51 17.27Q147.93 16.90 147.93 16.19L147.93 16.19Q147.93 15.50 147.51 15.09Q147.08 14.68 146.35 14.66L146.35 14.66L144.52 14.66ZM153.43 18.00L153.43 18.00L153.43 17.52Q153.43 16.28 153.87 15.32Q154.31 14.37 155.12 13.86Q155.93 13.35 156.97 13.35Q158.01 13.35 158.82 13.85Q159.62 14.35 160.06 15.29Q160.50 16.23 160.51 17.48L160.51 17.48L160.51 17.96Q160.51 19.21 160.07 20.16Q159.64 21.10 158.84 21.61Q158.03 22.12 156.98 22.12L156.98 22.12Q155.94 22.12 155.13 21.61Q154.32 21.10 153.88 20.17Q153.44 19.23 153.43 18.00ZM154.91 17.46L154.91 17.96Q154.91 19.36 155.46 20.13Q156.01 20.90 156.98 20.90L156.98 20.90Q157.97 20.90 158.50 20.15Q159.03 19.40 159.03 17.96L159.03 17.96L159.03 17.51Q159.03 16.09 158.49 15.34Q157.95 14.58 156.97 14.58L156.97 14.58Q156.01 14.58 155.47 15.33Q154.92 16.09 154.91 17.46L154.91 17.46ZM166.46 22L164.97 22L164.97 13.47L167.97 13.47Q169.45 13.47 170.25 14.13Q171.06 14.79 171.06 16.05L171.06 16.05Q171.06 16.90 170.64 17.48Q170.23 18.06 169.49 18.37L169.49 18.37L171.41 21.92L171.41 22L169.82 22L168.11 18.71L166.46 18.71L166.46 22ZM166.46 14.66L166.46 17.52L167.98 17.52Q168.73 17.52 169.15 17.15Q169.57 16.77 169.57 16.11L169.57 16.11Q169.57 15.43 169.18 15.05Q168.79 14.68 168.02 14.66L168.02 14.66L166.46 14.66Z" fill="#000000"/><path class="svg__text" d="M196.95 17.80L196.95 17.80Q196.95 16.54 197.55 15.54Q198.15 14.55 199.21 13.99Q200.28 13.43 201.63 13.43L201.63 13.43Q202.80 13.43 203.74 13.83Q204.68 14.22 205.30 14.97L205.30 14.97L203.79 16.33Q202.94 15.40 201.77 15.40L201.77 15.40Q201.75 15.40 201.75 15.40L201.75 15.40Q200.67 15.40 200.01 16.06Q199.35 16.71 199.35 17.80L199.35 17.80Q199.35 18.50 199.65 19.04Q199.95 19.59 200.49 19.89Q201.03 20.20 201.73 20.20L201.73 20.20Q202.41 20.20 203.01 19.93L203.01 19.93L203.01 17.62L205.11 17.62L205.11 21.10Q204.39 21.61 203.45 21.89Q202.52 22.17 201.58 22.17L201.58 22.17Q200.26 22.17 199.20 21.61Q198.15 21.05 197.55 20.05Q196.95 19.06 196.95 17.80ZM210.03 18.26L210.03 18.26L210.03 13.60L212.41 13.60L212.41 18.19Q212.41 20.20 214.00 20.20L214.00 20.20Q215.58 20.20 215.58 18.19L215.58 18.19L215.58 13.60L217.93 13.60L217.93 18.26Q217.93 20.13 216.89 21.15Q215.85 22.17 213.98 22.17L213.98 22.17Q212.10 22.17 211.07 21.15Q210.03 20.13 210.03 18.26ZM225.39 22L223.01 22L223.01 13.60L225.39 13.60L225.39 22ZM237.11 17.80L237.11 17.80Q237.11 16.54 237.71 15.54Q238.31 14.55 239.36 13.99Q240.41 13.43 241.73 13.43L241.73 13.43Q242.88 13.43 243.80 13.84Q244.73 14.25 245.34 15.02L245.34 15.02L243.83 16.39Q243.02 15.40 241.85 15.40L241.85 15.40Q241.16 15.40 240.63 15.70Q240.10 16 239.80 16.54Q239.51 17.09 239.51 17.80L239.51 17.80Q239.51 18.51 239.80 19.05Q240.10 19.60 240.63 19.90Q241.16 20.20 241.85 20.20L241.85 20.20Q243.02 20.20 243.83 19.22L243.83 19.22L245.34 20.58Q244.73 21.35 243.81 21.76Q242.88 22.17 241.73 22.17L241.73 22.17Q240.41 22.17 239.36 21.61Q238.31 21.05 237.71 20.05Q237.11 19.06 237.11 17.80ZM249.45 17.80L249.45 17.80Q249.45 16.55 250.05 15.55Q250.66 14.56 251.72 14.00Q252.78 13.43 254.11 13.43L254.11 13.43Q255.44 13.43 256.51 14.00Q257.57 14.56 258.18 15.55Q258.78 16.55 258.78 17.80L258.78 17.80Q258.78 19.05 258.18 20.04Q257.57 21.04 256.51 21.60Q255.45 22.17 254.11 22.17L254.11 22.17Q252.78 22.17 251.72 21.60Q250.66 21.04 250.05 20.04Q249.45 19.05 249.45 17.80ZM251.85 17.80L251.85 17.80Q251.85 18.51 252.15 19.05Q252.45 19.60 252.97 19.90Q253.48 20.20 254.11 20.20L254.11 20.20Q254.75 20.20 255.27 19.90Q255.78 19.60 256.08 19.05Q256.38 18.51 256.38 17.80L256.38 17.80Q256.38 17.09 256.08 16.54Q255.78 16 255.27 15.70Q254.75 15.40 254.11 15.40L254.11 15.40Q253.48 15.40 252.96 15.70Q252.45 16 252.15 16.54Q251.85 17.09 251.85 17.80ZM270.26 22L263.51 22L263.51 13.60L270.10 13.60L270.10 15.44L265.87 15.44L265.87 16.85L269.60 16.85L269.60 18.63L265.87 18.63L265.87 20.17L270.26 20.17L270.26 22ZM281.45 22L275.06 22L275.06 13.60L277.44 13.60L277.44 20.11L281.45 20.11L281.45 22ZM288.25 22L285.87 22L285.87 13.60L288.25 13.60L288.25 16.76L291.49 16.76L291.49 13.60L293.86 13.60L293.86 22L291.49 22L291.49 18.72L288.25 18.72L288.25 22ZM298.59 17.80L298.59 17.80Q298.59 16.55 299.20 15.55Q299.80 14.56 300.86 14.00Q301.93 13.43 303.26 13.43L303.26 13.43Q304.59 13.43 305.65 14.00Q306.71 14.56 307.32 15.55Q307.93 16.55 307.93 17.80L307.93 17.80Q307.93 19.05 307.32 20.04Q306.71 21.04 305.65 21.60Q304.59 22.17 303.26 22.17L303.26 22.17Q301.93 22.17 300.86 21.60Q299.80 21.04 299.20 20.04Q298.59 19.05 298.59 17.80ZM300.99 17.80L300.99 17.80Q300.99 18.51 301.29 19.05Q301.59 19.60 302.11 19.90Q302.62 20.20 303.26 20.20L303.26 20.20Q303.90 20.20 304.41 19.90Q304.93 19.60 305.23 19.05Q305.52 18.51 305.52 17.80L305.52 17.80Q305.52 17.09 305.23 16.54Q304.93 16 304.41 15.70Q303.90 15.40 303.26 15.40L303.26 15.40Q302.62 15.40 302.11 15.70Q301.59 16 301.29 16.54Q300.99 17.09 300.99 17.80Z" fill="#FFFFFF" x="196.19"/></svg>