<svg xmlns="http://www.w3.org/2000/svg" width="164.48" height="35" viewBox="0 0 164.48 35"><rect class="svg__rect" x="0" y="0" width="75.86" height="35" fill="#31C4F3"/><rect class="svg__rect" x="73.86" y="0" width="90.61999999999999" height="35" fill="#389AD5"/><path class="svg__text" d="M15.70 22L14.22 22L14.22 13.47L17.22 13.47Q18.69 13.47 19.50 14.13Q20.30 14.79 20.30 16.05L20.30 16.05Q20.30 16.90 19.89 17.48Q19.47 18.06 18.73 18.37L18.73 18.37L20.65 21.92L20.65 22L19.06 22L17.35 18.71L15.70 18.71L15.70 22ZM15.70 14.66L15.70 17.52L17.22 17.52Q17.97 17.52 18.39 17.15Q18.82 16.77 18.82 16.11L18.82 16.11Q18.82 15.43 18.43 15.05Q18.04 14.68 17.26 14.66L17.26 14.66L15.70 14.66ZM30.27 22L24.69 22L24.69 13.47L30.23 13.47L30.23 14.66L26.18 14.66L26.18 17.02L29.68 17.02L29.68 18.19L26.18 18.19L26.18 20.82L30.27 20.82L30.27 22ZM35.25 22L33.71 22L36.93 13.47L38.26 13.47L41.49 22L39.94 22L39.24 20.01L35.94 20.01L35.25 22ZM37.59 15.28L36.35 18.82L38.83 18.82L37.59 15.28ZM45.17 18.19L45.17 18.19L45.17 17.39Q45.17 16.19 45.60 15.27Q46.03 14.35 46.83 13.85Q47.63 13.35 48.68 13.35L48.68 13.35Q50.09 13.35 50.95 14.12Q51.81 14.89 51.95 16.29L51.95 16.29L50.48 16.29Q50.37 15.37 49.94 14.96Q49.51 14.55 48.68 14.55L48.68 14.55Q47.71 14.55 47.19 15.26Q46.67 15.96 46.66 17.33L46.66 17.33L46.66 18.09Q46.66 19.47 47.16 20.20Q47.65 20.92 48.61 20.92L48.61 20.92Q49.48 20.92 49.92 20.53Q50.36 20.14 50.48 19.22L50.48 19.22L51.95 19.22Q51.82 20.59 50.94 21.35Q50.06 22.12 48.61 22.12L48.61 22.12Q47.59 22.12 46.81 21.63Q46.03 21.15 45.61 20.26Q45.19 19.37 45.17 18.19ZM57.95 14.66L55.31 14.66L55.31 13.47L62.08 13.47L62.08 14.66L59.42 14.66L59.42 22L57.95 22L57.95 14.66Z" fill="#FFFFFF"/><path class="svg__text" d="M90.63 22L87.04 13.60L89.61 13.60L91.89 19.07L94.22 13.60L96.57 13.60L92.97 22L90.63 22ZM101.52 15.44L99.95 15.44L99.95 13.60L103.89 13.60L103.89 22L101.52 22L101.52 15.44ZM110.53 16.78L108.50 16.78L108.50 13.60L115.46 13.60L115.46 15.09L112.50 22L109.91 22L112.74 15.48L110.53 15.48L110.53 16.78ZM119.62 20.75L119.62 20.75Q119.62 20.15 120.01 19.78Q120.40 19.41 120.99 19.41L120.99 19.41Q121.59 19.41 121.97 19.78Q122.35 20.15 122.35 20.75L122.35 20.75Q122.35 21.34 121.96 21.72Q121.58 22.11 120.99 22.11L120.99 22.11Q120.41 22.11 120.01 21.72Q119.62 21.34 119.62 20.75ZM126.58 17.80L126.58 17.80Q126.58 16.45 127.06 15.46Q127.53 14.46 128.37 13.95Q129.21 13.43 130.29 13.43L130.29 13.43Q131.35 13.43 132.20 13.95Q133.04 14.46 133.51 15.46Q133.99 16.45 133.99 17.80L133.99 17.80Q133.99 19.15 133.51 20.15Q133.04 21.14 132.20 21.65Q131.36 22.17 130.29 22.17L130.29 22.17Q129.21 22.17 128.37 21.65Q127.53 21.14 127.06 20.15Q126.58 19.16 126.58 17.80ZM128.97 17.80L128.97 17.80Q128.97 19.06 129.32 19.64Q129.68 20.22 130.29 20.22L130.29 20.22Q130.89 20.22 131.25 19.64Q131.60 19.06 131.60 17.80L131.60 17.80Q131.60 16.54 131.25 15.96Q130.89 15.38 130.29 15.38L130.29 15.38Q129.68 15.38 129.32 15.96Q128.97 16.54 128.97 17.80ZM138.20 20.75L138.20 20.75Q138.20 20.15 138.59 19.78Q138.98 19.41 139.57 19.41L139.57 19.41Q140.17 19.41 140.55 19.78Q140.93 20.15 140.93 20.75L140.93 20.75Q140.93 21.34 140.54 21.72Q140.16 22.11 139.57 22.11L139.57 22.11Q138.99 22.11 138.59 21.72Q138.20 21.34 138.20 20.75ZM146.45 16.17L144.68 15.19Q145.18 14.37 146.06 13.90Q146.95 13.43 148.17 13.43L148.17 13.43Q149.13 13.43 149.86 13.74Q150.60 14.05 151.01 14.64Q151.43 15.22 151.43 15.99L151.43 15.99Q151.43 16.67 151.13 17.28Q150.84 17.89 150.00 18.65L150.00 18.65L148.42 20.11L151.66 20.11L151.66 22L145.11 22L145.11 20.51L148.26 17.57Q148.72 17.14 148.87 16.83Q149.03 16.53 149.03 16.22L149.03 16.22Q149.03 15.81 148.75 15.58Q148.48 15.35 147.95 15.35L147.95 15.35Q147.48 15.35 147.09 15.56Q146.70 15.77 146.45 16.17L146.45 16.17Z" fill="#FFFFFF" x="86.86"/></svg>